<svg width="33" height="33" viewBox="0 0 33 33" fill="none" xmlns="http://www.w3.org/2000/svg">
<circle cx="16.5" cy="16.5" r="16.5" fill="#F3F4F6"/>
<g clip-path="url(#clip0_299_569)">
<path fill-rule="evenodd" clip-rule="evenodd" d="M13.4417 17.0832C13.2871 16.9285 13.2002 16.7187 13.2002 16.5C13.2002 16.2812 13.2871 16.0714 13.4417 15.9167L18.1088 11.2497C18.1849 11.1709 18.2759 11.108 18.3766 11.0648C18.4772 11.0215 18.5855 10.9988 18.695 10.9978C18.8046 10.9969 18.9132 11.0178 19.0146 11.0592C19.116 11.1007 19.2081 11.162 19.2855 11.2394C19.363 11.3169 19.4243 11.409 19.4657 11.5104C19.5072 11.6118 19.5281 11.7204 19.5272 11.83C19.5262 11.9395 19.5034 12.0478 19.4602 12.1484C19.417 12.2491 19.3541 12.3401 19.2753 12.4162L15.1916 16.5L19.2753 20.5837C19.4256 20.7393 19.5088 20.9477 19.5069 21.164C19.505 21.3803 19.4182 21.5873 19.2653 21.7402C19.1123 21.8932 18.9054 21.9799 18.6891 21.9818C18.4728 21.9837 18.2644 21.9005 18.1088 21.7503L13.4417 17.0832Z" fill="black"/>
</g>
<defs>
<clipPath id="clip0_299_569">
<rect width="19.8" height="19.8" fill="white" transform="translate(6.59961 6.6001)"/>
</clipPath>
</defs>
</svg>
