<svg width="64" height="69" viewBox="0 0 64 69" fill="none" xmlns="http://www.w3.org/2000/svg">
<rect x="0.195312" y="0.0344238" width="62.931" height="68.8046" rx="14.2644" fill="#FFF1CD"/>
<path d="M31.6609 21.2213C28.7679 21.2213 25.9934 22.3706 23.9477 24.4162C21.9021 26.4619 20.7528 29.2364 20.7528 32.1294V35.8981L18.1704 41.063C18.0662 41.2709 18.0169 41.502 18.0272 41.7343C18.0375 41.9666 18.107 42.1924 18.2292 42.3902C18.3513 42.5881 18.5221 42.7514 18.7251 42.8647C18.9282 42.9779 19.1568 43.0374 19.3893 43.0374H43.9324C44.165 43.0374 44.3936 42.9779 44.5967 42.8647C44.7997 42.7514 44.9704 42.5881 45.0926 42.3902C45.2147 42.1924 45.2843 41.9666 45.2946 41.7343C45.3049 41.502 45.2556 41.2709 45.1514 41.063L42.5689 35.8981V32.1294C42.5689 29.2364 41.4197 26.4619 39.374 24.4162C37.3284 22.3706 34.5539 21.2213 31.6609 21.2213ZM31.6609 49.8549C30.4515 49.8552 29.2763 49.4536 28.3202 48.7131C27.364 47.9727 26.681 46.9354 26.3787 45.7644H36.9431C36.6408 46.9354 35.9578 47.9727 35.0016 48.7131C34.0454 49.4536 32.8703 49.8552 31.6609 49.8549Z" fill="#FFB906"/>
</svg>
