<svg width="33" height="33" viewBox="0 0 33 33" fill="none" xmlns="http://www.w3.org/2000/svg">
<circle cx="16.5" cy="16.5" r="16.5" transform="matrix(-1 0 0 1 33 0)" fill="#F3F4F6"/>
<g clip-path="url(#clip0_299_583)">
<path fill-rule="evenodd" clip-rule="evenodd" d="M19.5583 17.0832C19.7129 16.9285 19.7998 16.7187 19.7998 16.5C19.7998 16.2812 19.7129 16.0714 19.5583 15.9167L14.8912 11.2497C14.8151 11.1709 14.7241 11.108 14.6234 11.0648C14.5228 11.0215 14.4145 10.9988 14.305 10.9978C14.1954 10.9969 14.0868 11.0178 13.9854 11.0592C13.884 11.1007 13.7919 11.162 13.7145 11.2394C13.637 11.3169 13.5757 11.409 13.5343 11.5104C13.4928 11.6118 13.4719 11.7204 13.4728 11.83C13.4738 11.9395 13.4966 12.0478 13.5398 12.1484C13.583 12.2491 13.6459 12.3401 13.7247 12.4162L17.8084 16.5L13.7247 20.5837C13.5744 20.7393 13.4912 20.9477 13.4931 21.164C13.495 21.3803 13.5818 21.5873 13.7347 21.7402C13.8877 21.8932 14.0946 21.9799 14.3109 21.9818C14.5272 21.9837 14.7356 21.9005 14.8912 21.7503L19.5583 17.0832Z" fill="black"/>
</g>
<defs>
<clipPath id="clip0_299_583">
<rect width="19.8" height="19.8" fill="white" transform="matrix(-1 0 0 1 26.4004 6.6001)"/>
</clipPath>
</defs>
</svg>
