<svg width="250" height="250" viewBox="0 0 250 250" fill="none" xmlns="http://www.w3.org/2000/svg">
<path d="M142.751 83.1649C143.05 82.8892 143.261 82.5311 143.358 82.1356C143.454 81.7402 143.432 81.325 143.293 80.9423C143.189 80.6559 143.023 80.3961 142.806 80.1817C142.59 79.9674 142.328 79.8039 142.041 79.703C141.753 79.6022 141.447 79.5666 141.144 79.5987C140.841 79.6309 140.549 79.73 140.289 79.8889C140.029 80.0469 139.807 80.2607 139.639 80.515C139.472 80.7692 139.362 81.0575 139.32 81.359C139.277 81.6605 139.302 81.9678 139.392 82.2586C139.483 82.5494 139.636 82.8165 139.843 83.0406C140.115 83.3457 140.473 83.5615 140.87 83.6596C141.266 83.7577 141.684 83.7336 142.067 83.5903C142.32 83.4958 142.553 83.3503 142.751 83.1649ZM136.567 116.856C136.695 116.498 136.723 116.112 136.648 115.74C136.574 115.367 136.399 115.022 136.143 114.741C135.963 114.537 135.744 114.371 135.498 114.254C135.253 114.137 134.986 114.07 134.715 114.059C134.443 114.047 134.171 114.091 133.917 114.187C133.662 114.282 133.43 114.429 133.233 114.617C132.942 114.901 132.736 115.262 132.64 115.658C132.544 116.054 132.56 116.469 132.689 116.856C133.98 116.93 135.274 116.93 136.567 116.856ZM138.146 92.8612C138.447 92.5862 138.659 92.228 138.755 91.8322C138.851 91.4365 138.828 91.021 138.687 90.6386C138.582 90.3538 138.415 90.0958 138.199 89.8831C137.982 89.6704 137.721 89.5083 137.435 89.4084C137.148 89.3085 136.843 89.2732 136.541 89.3052C136.239 89.3372 135.948 89.4355 135.688 89.5933C135.429 89.751 135.208 89.9642 135.041 90.2175C134.873 90.4709 134.764 90.7581 134.721 91.0586C134.678 91.359 134.702 91.6654 134.791 91.9555C134.88 92.2457 135.033 92.5125 135.237 92.7368C135.509 93.042 135.867 93.2578 136.264 93.3559C136.661 93.454 137.078 93.4298 137.461 93.2866C137.716 93.1921 137.948 93.0478 138.146 92.8612ZM151.779 97.6472C152.18 97.2765 152.418 96.7624 152.442 96.2168C152.46 95.8099 152.357 95.4068 152.145 95.0589C151.933 94.7111 151.622 94.4344 151.252 94.2642C150.882 94.0926 150.47 94.0346 150.068 94.0975C149.666 94.1604 149.291 94.3413 148.992 94.6174C148.689 94.8913 148.476 95.2495 148.379 95.6458C148.282 96.0422 148.305 96.4585 148.447 96.8412C148.587 97.2235 148.838 97.5552 149.168 97.7939C149.498 98.0325 149.892 98.1672 150.299 98.1807C150.842 98.2031 151.375 98.0116 151.779 97.6472ZM153.475 86.135C153.775 85.8593 153.986 85.5011 154.083 85.1057C154.179 84.7102 154.157 84.2951 154.018 83.9124C153.914 83.626 153.748 83.3661 153.531 83.1518C153.315 82.9374 153.053 82.7739 152.766 82.6731C152.478 82.5723 152.172 82.5366 151.869 82.5688C151.566 82.6009 151.274 82.7 151.014 82.859C150.754 83.017 150.532 83.2308 150.364 83.485C150.196 83.7393 150.087 84.0275 150.045 84.3291C150.002 84.6306 150.027 84.9378 150.117 85.2286C150.207 85.5194 150.361 85.7865 150.568 86.0106C150.946 86.3989 151.458 86.6279 152 86.6511C152.542 86.6742 153.072 86.4896 153.482 86.135H153.475ZM168.806 98.1347C169.035 97.9444 169.203 97.6919 169.291 97.4071C169.203 97.1992 169.102 96.997 168.989 96.8014V96.7417C168.628 96.0106 168.223 95.302 167.776 94.6199C167.776 94.6118 167.775 94.6039 167.772 94.5962C167.769 94.589 167.764 94.5824 167.759 94.5763C167.753 94.571 167.746 94.5667 167.739 94.5639C167.425 94.4998 167.101 94.5098 166.792 94.5931C166.483 94.6765 166.198 94.8309 165.959 95.044C165.65 95.3141 165.431 95.672 165.332 96.0699C165.232 96.4678 165.257 96.8866 165.402 97.2703C165.499 97.5253 165.646 97.7566 165.835 97.9531C166.211 98.3605 166.73 98.6068 167.284 98.6407C167.837 98.6745 168.383 98.4932 168.806 98.1347ZM163.831 87.4099C162.983 85.6524 162.741 85.349 161.953 83.895L161.892 83.956C161.516 84.3312 161.3 84.8372 161.289 85.368C161.278 85.8989 161.473 86.4134 161.832 86.8041C162.073 87.0863 162.391 87.2931 162.746 87.4001C163.102 87.507 163.48 87.5095 163.837 87.4074L163.831 87.4099ZM154.378 107.891C154.584 108.115 154.837 108.292 155.119 108.406C155.401 108.521 155.705 108.572 156.009 108.555C156.313 108.538 156.609 108.454 156.876 108.309C157.144 108.163 157.376 107.96 157.555 107.714C157.796 107.386 157.934 106.994 157.952 106.587C157.969 106.18 157.865 105.777 157.653 105.429C157.495 105.169 157.282 104.947 157.028 104.779C156.773 104.612 156.485 104.503 156.184 104.46C155.883 104.417 155.575 104.442 155.285 104.532C154.994 104.622 154.727 104.776 154.503 104.982C154.2 105.255 153.986 105.613 153.889 106.01C153.792 106.406 153.816 106.823 153.958 107.205C154.054 107.459 154.198 107.69 154.385 107.888L154.378 107.891ZM136.322 101.71C136.022 101.986 135.811 102.344 135.715 102.74C135.618 103.135 135.641 103.55 135.779 103.933C135.884 104.219 136.05 104.479 136.267 104.692C136.483 104.906 136.745 105.07 137.032 105.17C137.319 105.271 137.626 105.307 137.928 105.275C138.231 105.243 138.523 105.144 138.783 104.985C139.043 104.827 139.265 104.613 139.433 104.359C139.6 104.105 139.709 103.817 139.752 103.516C139.795 103.214 139.77 102.907 139.68 102.617C139.589 102.326 139.436 102.059 139.23 101.835C139.049 101.633 138.83 101.47 138.586 101.354C138.341 101.238 138.076 101.173 137.805 101.162C137.535 101.15 137.265 101.192 137.012 101.286C136.758 101.38 136.525 101.523 136.328 101.708L136.322 101.71ZM99.789 105.1C99.4888 105.375 99.2769 105.733 99.1804 106.129C99.0838 106.524 99.1068 106.94 99.2465 107.322C99.3863 107.705 99.6364 108.037 99.9652 108.277C100.294 108.518 100.687 108.655 101.094 108.672C101.5 108.689 101.903 108.585 102.251 108.374C102.598 108.162 102.875 107.853 103.047 107.484C103.219 107.115 103.277 106.703 103.215 106.301C103.153 105.899 102.973 105.524 102.698 105.224C102.517 105.022 102.298 104.857 102.052 104.741C101.807 104.625 101.541 104.559 101.27 104.548C100.999 104.536 100.728 104.579 100.474 104.674C100.219 104.769 99.9864 104.913 99.789 105.1ZM111.48 86.2544C111.78 85.9791 111.992 85.6211 112.088 85.2255C112.185 84.83 112.162 84.4147 112.022 84.0322C111.883 83.6497 111.633 83.3172 111.304 83.0768C110.976 82.8363 110.583 82.6987 110.176 82.6813C109.77 82.6639 109.367 82.7675 109.019 82.979C108.671 83.1906 108.394 83.5005 108.222 83.8697C108.05 84.2389 107.992 84.6506 108.054 85.053C108.117 85.4553 108.297 85.8301 108.572 86.13C108.949 86.5203 109.461 86.7508 110.003 86.774C110.545 86.7971 111.075 86.6111 111.484 86.2544H111.48ZM100.634 92.314C100.634 91.9062 100.513 91.5076 100.287 91.1685C100.06 90.8294 99.7385 90.5651 99.3619 90.4089C98.9852 90.2528 98.5707 90.2119 98.1709 90.2914C97.771 90.3708 97.4036 90.5671 97.1153 90.8554C96.827 91.1437 96.6307 91.5111 96.5513 91.911C96.4718 92.3108 96.5127 92.7253 96.6688 93.102C96.825 93.4786 97.0893 93.8004 97.4284 94.0268C97.7675 94.2532 98.1661 94.3739 98.5739 94.3736C98.8452 94.3764 99.1144 94.3251 99.3656 94.2228C99.6169 94.1204 99.8453 93.9689 100.037 93.7773C100.229 93.5857 100.381 93.3577 100.484 93.1066C100.587 92.8556 100.639 92.5865 100.637 92.3152L100.634 92.314ZM120.206 89.4061C120.482 89.7057 120.84 89.9169 121.235 90.0131C121.631 90.1093 122.046 90.086 122.428 89.9464C122.811 89.8067 123.143 89.5568 123.383 89.2283C123.623 88.8998 123.761 88.5075 123.778 88.1009C123.796 87.6942 123.692 87.2916 123.481 86.9438C123.269 86.596 122.96 86.3187 122.591 86.1469C122.222 85.9751 121.81 85.9166 121.408 85.9787C121.006 86.0407 120.631 86.2207 120.331 86.4957C120.13 86.6781 119.968 86.8984 119.853 87.144C119.738 87.3896 119.674 87.6555 119.662 87.9263C119.651 88.1971 119.694 88.4675 119.788 88.7217C119.882 88.9759 120.025 89.209 120.21 89.4073L120.206 89.4061ZM105.546 93.4085C105.246 93.6837 105.035 94.0418 104.938 94.4373C104.842 94.8329 104.865 95.2482 105.004 95.6306C105.144 96.0131 105.394 96.3456 105.722 96.5861C106.051 96.8266 106.443 96.9642 106.85 96.9816C107.257 96.999 107.66 96.8954 108.008 96.6838C108.355 96.4723 108.633 96.1623 108.804 95.7932C108.976 95.424 109.035 95.0122 108.972 94.6099C108.91 94.2075 108.73 93.8327 108.454 93.5328C108.083 93.1343 107.57 92.8979 107.026 92.8746C106.482 92.8514 105.95 93.0431 105.546 93.4085ZM119.24 108.315C118.941 108.59 118.73 108.948 118.634 109.343C118.537 109.738 118.561 110.153 118.7 110.535C118.84 110.917 119.09 111.249 119.418 111.489C119.746 111.73 120.138 111.867 120.545 111.884C120.951 111.902 121.353 111.798 121.701 111.587C122.048 111.376 122.326 111.066 122.497 110.698C122.669 110.329 122.728 109.918 122.666 109.516C122.604 109.114 122.424 108.739 122.149 108.439C121.968 108.237 121.749 108.072 121.504 107.956C121.259 107.84 120.992 107.774 120.721 107.762C120.45 107.75 120.179 107.793 119.925 107.887C119.671 107.982 119.438 108.126 119.24 108.312V108.315ZM119.603 78.3205C119.965 77.9864 120.195 77.5332 120.251 77.0437C120.307 76.5541 120.184 76.0609 119.907 75.6539C118.613 75.8878 117.352 76.2733 116.149 76.8056C116.152 77.3218 116.347 77.8181 116.695 78.1986C116.875 78.4021 117.095 78.5671 117.34 78.6838C117.586 78.8004 117.852 78.8663 118.124 78.8774C118.395 78.8886 118.666 78.8448 118.921 78.7486C119.175 78.6525 119.407 78.5061 119.603 78.318V78.3205ZM118.21 100.248C118.618 100.248 119.017 100.127 119.357 99.9007C119.696 99.674 119.96 99.3518 120.117 98.9748C120.273 98.5978 120.314 98.183 120.234 97.7828C120.154 97.3826 119.957 97.015 119.669 96.7267C119.38 96.4383 119.012 96.2421 118.612 96.1628C118.212 96.0836 117.797 96.1249 117.42 96.2815C117.043 96.4381 116.721 96.703 116.495 97.0426C116.269 97.3823 116.149 97.7814 116.149 98.1894C116.155 98.7341 116.374 99.2548 116.759 99.6398C117.145 100.025 117.666 100.244 118.21 100.249V100.248ZM203.158 165.025C202.456 160.096 201.091 155.285 199.099 150.722C197.656 147.929 197.704 146.662 193.948 147.692C190.858 148.54 168.68 155.024 166.499 155.933C166.075 140.663 164.11 130.95 159.046 121.637C158.023 119.755 155.956 117.698 153.107 114.547C144.382 118.668 121.478 116.607 121.478 116.607C121.478 116.607 113.221 148.599 110.57 163.689C109.052 170.886 109.946 178.382 113.115 185.019C122.737 206.287 126.879 214.675 132.082 225.011C133.699 228.231 135.585 226.876 138.08 225.135C140.615 223.363 147.714 218.47 147.714 218.47C148.374 218.127 148.887 217.56 149.165 216.871C149.443 216.182 149.466 215.417 149.229 214.713C145.181 201.25 140.449 188.003 135.051 175.023C133.895 172.237 134.565 170.66 135.595 168.601C137.656 164.48 141.534 156.239 141.534 156.239C143.534 161.51 145.59 168.055 149.411 174.599C154.013 182.478 159.225 185.615 167.165 183.689C175.706 181.615 199.221 171.389 201.16 170.54C203.65 169.454 203.635 168.122 203.163 165.029L203.158 165.025Z" fill="#FECFC4"/>
<path d="M81.7935 138.367C82.4589 139.518 83.9738 142.669 85.4886 145.76C92.874 142.173 86.1951 135.785 81.7935 138.367Z" fill="#7F00FF"/>
<path d="M96.0925 114.801C96.3363 113.418 96.4992 112.021 96.5776 110.619C95.7903 111.104 92.457 112.558 92.457 112.558C93.4494 113.614 94.7038 114.387 96.0925 114.801Z" fill="#7F00FF"/>
<path d="M211.223 40.5061C211.832 40.86 212.504 41.0904 213.203 41.1842C213.901 41.2781 214.61 41.2335 215.291 41.0531C215.972 40.8726 216.611 40.5598 217.171 40.1325C217.731 39.7052 218.201 39.1718 218.555 38.5628C218.909 37.9537 219.139 37.2809 219.233 36.5828C219.327 35.8847 219.282 35.1749 219.102 34.494C218.922 33.8131 218.609 33.1744 218.181 32.6144C217.754 32.0544 217.221 31.5841 216.612 31.2302C215.382 30.5156 213.918 30.3188 212.543 30.6833C211.168 31.0477 209.994 31.9435 209.279 33.1736C208.565 34.4037 208.368 35.8672 208.732 37.2423C209.097 38.6175 209.992 39.7915 211.223 40.5061Z" fill="#7F00FF"/>
<path d="M20.536 144.954C20.536 144.954 20.0086 145.21 18.3507 146.062C13.9267 148.334 17.495 155.548 22.0459 153.276C23.7225 152.437 24.8232 151.75 24.8232 151.75C23.0371 149.73 21.5893 147.435 20.536 144.954Z" fill="#7F00FF"/>
<path d="M111.06 99.2833C112.82 92.7237 114.227 89.6044 105.849 109.827C113.187 106.261 112.428 106.667 112.514 106.493C111.723 105.49 111.179 104.314 110.926 103.062C110.674 101.809 110.72 100.515 111.06 99.2833Z" fill="#7F00FF"/>
<path d="M55.4341 127.096C56.9463 129.124 57.9426 131.489 58.337 133.988C59.8438 133.445 61.3045 132.781 62.705 132.004C62.2166 130.835 61.6499 129.699 61.0086 128.606C60.7615 128.122 60.4157 127.694 59.9933 127.351C59.5709 127.008 59.0814 126.757 58.5562 126.615C58.031 126.473 57.4819 126.442 56.9442 126.525C56.4064 126.608 55.892 126.803 55.4341 127.096Z" fill="#7F00FF"/>
<path d="M211.042 148.303C208.996 144.516 206.171 145.434 202.315 147.577C204.43 148.729 206.779 149.834 207.588 150.849C210.351 154.861 212.477 159.275 213.89 163.937C214.078 164.83 214.084 165.753 213.907 166.648C213.73 167.544 213.373 168.394 212.859 169.149C216.616 171.876 219.406 173.936 219.1 170.119C218.679 164.846 214.107 153.979 211.042 148.303Z" fill="#7F00FF"/>
<path d="M154.688 68.8651C154.506 63.4709 149.174 62.502 146.265 62.8664C146.389 55.8368 141.054 53.8978 138.024 53.3518C136.433 45.9788 123.554 42.6219 119.906 49.1715C118.864 51.0371 119.725 53.7162 121.36 55.5942C115.71 54.5669 112.025 61.5555 115.786 65.8962C107.787 66.38 107.06 74.9843 111.545 78.9842C120.268 74.2256 125.299 75.6721 126.79 74.6547C127.663 73.8612 128.474 73.0039 129.22 72.0901C129.311 72.004 129.376 71.8925 129.404 71.7698C129.432 71.6471 129.424 71.5187 129.379 71.4011C129.332 71.2839 129.252 71.1831 129.148 71.1116C129.044 71.0401 128.921 71.001 128.795 70.9993C127.087 70.9993 123.858 71.5764 122.192 70.6262C119.572 69.1337 119.777 67.3427 121.543 63.1637C122.85 60.0668 124.592 55.5893 127.844 55.5893C131.844 55.5893 132.838 58.1327 132.994 60.3765C133.139 62.4349 131.31 64.6612 132.389 65.4049C132.818 65.7022 133.359 65.2806 134.025 64.9199C136.871 63.6562 138.576 68.0653 134.752 70.1312C134.09 70.465 133.508 70.9379 133.047 71.5176C132.585 72.0972 132.254 72.7698 132.076 73.4893C131.897 74.208 131.875 74.957 132.013 75.6848C132.151 76.4127 132.444 77.1021 132.874 77.7056C134.593 80.417 139.781 81.0389 141.72 77.2828C142.784 78.4171 144.252 79.0866 145.805 79.1462C147.359 79.2058 148.874 78.6507 150.021 77.6012C150.78 76.9058 151.344 76.0244 151.658 75.044C156.384 77.9519 159.051 79.6459 160.505 81.9518C164.868 77.8934 161.959 69.4708 154.688 68.8651Z" fill="#7F00FF"/>
<path d="M150.688 221.442C149.719 223.865 148.923 226.706 147.962 227.744C144.395 231.055 140.322 233.775 135.897 235.802C134.414 236.361 132.779 236.361 131.296 235.802C128.993 240.226 126.99 243.787 130.993 242.767C136.078 241.476 146.774 233.773 151.898 229.8C155.48 227.03 153.505 224.91 150.688 221.442Z" fill="#7F00FF"/>
<path d="M153.109 114.614C149.331 110.19 145.945 105.446 142.99 100.435C143.838 104.739 147.231 112.191 148.868 115.766C150.309 115.491 151.727 115.106 153.109 114.614Z" fill="#7F00FF"/>
<path d="M131.964 74.5609C131.909 73.632 132.127 72.7073 132.589 71.9001C133.052 71.0929 133.74 70.4382 134.57 70.0162C136.094 69.1244 136.877 68.4416 136.994 66.9267C137.118 65.2912 136.026 64.2129 134.812 64.4392C133.784 64.6333 132.983 65.6618 132.388 65.0449C131.585 64.2116 133.172 62.198 133.116 60.259C133.174 59.2597 132.903 58.2689 132.345 57.438C131.787 56.607 130.972 55.9816 130.025 55.6571C127.125 54.7865 125.36 55.8387 123.965 58.2628C122.379 60.9273 121.177 63.8033 120.397 66.8048C119.9 69.1058 121.245 70.8607 123.851 71.2289C124.837 71.3349 125.829 71.3765 126.82 71.3532L125.608 74.7462L123.305 74.9949C123.305 74.9949 122.749 77.0521 122.457 78.0247C121.387 81.5881 123.183 85.3268 126.396 85.3566C130.879 85.3989 133.027 82.3368 134.031 79.419C134.093 79.2374 134.155 79.0558 134.213 78.8133C133.534 78.3272 132.978 77.69 132.587 76.952C132.197 76.214 131.984 75.3955 131.964 74.5609Z" stroke="#120071" stroke-width="1.25" stroke-linecap="round" stroke-linejoin="round"/>
<path d="M112.393 106.617L96.1537 114.552C96.1537 114.552 97.3974 110.305 95.9721 103.222C94.9097 98.7847 93.4696 94.4468 91.6675 90.2555L107.422 81.1662C114.997 76.925 118.026 75.5917 123.358 74.9847" stroke="#120071" stroke-width="1.25" stroke-linecap="round" stroke-linejoin="round"/>
<path d="M114.575 85.8315L110.999 99.2839C110.671 100.526 110.631 101.828 110.883 103.088C111.136 104.349 111.673 105.534 112.455 106.555C112.514 106.616 112.579 106.736 112.636 106.797C114.394 108.979 117.238 112.129 121.543 116.499C148.205 117.771 160.506 116.921 170.019 98.6234C165.777 90.9271 160.655 81.8577 160.521 81.6462C159.298 79.7147 157.32 78.221 153.961 76.2036C153.24 75.7683 152.507 75.2944 151.659 74.7484C151.343 75.7271 150.778 76.6064 150.018 77.2996C149.259 77.9928 148.331 78.4759 147.328 78.701C146.325 78.9269 145.281 78.8876 144.298 78.5871C143.314 78.2866 142.427 77.7352 141.721 76.9872C140.206 80.0169 136.51 80.1985 134.208 78.7446" stroke="#120071" stroke-width="1.25" stroke-linecap="round" stroke-linejoin="round"/>
<path d="M126.935 94.9209L126.27 100.434C126.121 101.718 126.268 103.019 126.699 104.237C127.13 105.456 127.834 106.559 128.757 107.464C128.818 107.524 128.875 107.588 129 107.713C129.651 108.335 130.393 108.985 131.238 109.712" stroke="#120071" stroke-width="1.25" stroke-linecap="round" stroke-linejoin="round"/>
<path d="M160.54 81.6727C161.113 81.1755 161.582 80.5695 161.92 79.8897C162.257 79.2099 162.456 78.4699 162.505 77.7126C162.634 76.0586 162.26 74.4043 161.431 72.9674C160.601 71.5306 159.356 70.3785 157.86 69.663C156.867 69.1874 155.788 68.9163 154.688 68.8658C154.688 65.2303 151.477 62.4418 146.266 62.8672C146.69 58.6857 143.599 54.141 138.024 53.3525C136.57 47.9608 130.45 45.4708 126.996 45.5964C122.209 45.7706 119.16 48.3862 119.544 51.5353C119.746 53.0278 120.402 54.4233 121.422 55.534C121.062 55.4631 120.697 55.4215 120.331 55.4096C119.527 55.424 118.733 55.597 117.996 55.9188C117.259 56.2405 116.593 56.7046 116.035 57.2845C115.478 57.8643 115.041 58.5485 114.748 59.2978C114.456 60.0471 114.315 60.8467 114.332 61.6508C114.343 63.1587 114.878 64.6158 115.847 65.7713C107.424 66.2564 107.424 75.4726 111.605 78.8593" stroke="#120071" stroke-width="1.25" stroke-linecap="round" stroke-linejoin="round"/>
<path d="M72.7443 65.7447C69.2432 60.2498 67.7345 57.4115 67.7942 55.7163C67.8539 54.0211 69.0665 53.6567 70.0329 54.5646C74.2285 58.7466 78.0975 63.2439 81.606 68.017C83.1197 70.8055 83.7378 74.4957 85.3025 77.8936C86.2788 80.008 91.6655 90.2565 91.6655 90.2565" stroke="#120071" stroke-width="1.25" stroke-linecap="round" stroke-linejoin="round"/>
<path d="M77.0659 79.4695C75.4567 77.1992 74.2287 74.6815 73.4304 72.0157C69.9765 70.9859 68.0997 70.1364 67.3111 69.1675C66.2228 67.833 66.7042 66.6228 68.0984 66.6228C71.6251 66.5297 75.1488 66.8963 78.5807 67.7136" stroke="#120071" stroke-width="1.25" stroke-linecap="round" stroke-linejoin="round"/>
<path d="M69.0801 66.6279C64.625 61.5061 61.9173 57.8371 61.7967 56.1406C61.6761 54.4441 62.7743 53.9466 63.9111 54.7464C65.1934 55.6431 66.8202 57.0485 68.513 58.5037" stroke="#120071" stroke-width="1.25" stroke-linecap="round" stroke-linejoin="round"/>
<path d="M60.7056 61.5335C59.6148 60.9862 58.7218 61.7698 59.131 63.4115C59.8238 66.1926 63.1993 71.5867 64.7055 73.9548C67.2042 77.8851 69.4417 79.1039 70.1581 82.3775C77.2835 114.895 84.2722 115.813 90.4573 113.463C93.1824 112.426 96.6388 110.675 96.6388 110.675" stroke="#120071" stroke-width="1.25" stroke-linecap="round" stroke-linejoin="round"/>
<path d="M66.3958 69.5682C62.1945 64.2798 59.6796 60.4888 59.6149 58.806C59.5502 57.1232 60.6982 56.6344 61.7965 57.4727C62.0377 57.6568 62.2815 57.8968 62.585 58.1394" stroke="#120071" stroke-width="1.25" stroke-linecap="round" stroke-linejoin="round"/>
<path d="M70.9087 66.668C72.3354 65.9022 73.8046 65.2182 75.3091 64.6195" stroke="#120071" stroke-width="1.25" stroke-linecap="round" stroke-linejoin="round"/>
<path d="M64.5229 71.1066C65.3659 70.3523 66.2552 69.6515 67.1858 69.0084" stroke="#120071" stroke-width="1.25" stroke-linecap="round" stroke-linejoin="round"/>
<path d="M188.626 77.0992C191.954 72.256 193.377 69.6529 193.352 68.0198C193.321 66.3233 192.203 65.9054 191.171 66.8072C186.823 70.8356 182.789 75.1911 179.106 79.8354C177.524 82.5593 176.743 86.1972 175.047 89.5914C174.385 90.9135 171.782 95.4992 170.017 98.6198" stroke="#120071" stroke-width="1.25" stroke-linecap="round" stroke-linejoin="round"/>
<path d="M186.742 92.7989C186.834 90.031 186.466 87.267 185.651 84.62C187.955 81.8328 189.038 80.135 189.166 78.8614C189.338 77.165 188.249 76.4274 187.106 77.1662C184.662 78.6988 182.387 80.4866 180.319 82.4994" stroke="#120071" stroke-width="1.25" stroke-linecap="round" stroke-linejoin="round"/>
<path d="M190.164 80.5813C191.774 78.3749 192.008 78.1137 193.468 76.0752C195.389 73.3961 197.267 72.6051 198.559 71.1002C199.927 69.5082 199.282 67.5766 197.77 68.1314C194.855 69.2035 194.014 69.5256 192.499 70.798" stroke="#120071" stroke-width="1.25" stroke-linecap="round" stroke-linejoin="round"/>
<path d="M192.205 82.4286C193.776 80.5555 194.803 79.2856 195.589 78.4386C197.165 76.7421 199.113 76.8777 200.801 75.8329C202.445 74.8168 202.374 72.5445 200.801 72.7435C196.796 73.2472 195.826 73.4101 194.984 74.2584" stroke="#120071" stroke-width="1.25" stroke-linecap="round" stroke-linejoin="round"/>
<path d="M142.994 100.435C146.189 105.904 149.924 111.04 154.143 115.764C157.552 119.508 162.202 123.339 164.626 124.371C170.747 126.973 182.059 126.834 190.137 94.4963C190.817 91.7725 192.578 90.872 194.378 87.9517C196.276 84.8734 195.818 83.458 197.408 81.4095C198.068 80.5551 199.778 80.815 201.528 79.8325C203.232 78.876 203.287 76.6298 201.653 76.8636C197.656 77.432 196.678 77.3487 195.897 78.1957" stroke="#120071" stroke-width="1.25" stroke-linecap="round" stroke-linejoin="round"/>
<path d="M193.833 84.5591C192.588 82.6056 190.921 80.9558 188.955 79.7308" stroke="#120071" stroke-width="1.25" stroke-linecap="round" stroke-linejoin="round"/>
<path d="M121.422 116.735C121.422 116.735 113.166 148.725 110.515 163.817C108.996 171.013 109.891 178.51 113.061 185.146C122.682 206.414 126.825 214.802 132.027 225.139C133.643 228.358 135.531 227.005 138.025 225.263C140.56 223.492 147.659 218.598 147.659 218.598C148.319 218.256 148.835 217.689 149.113 217C149.39 216.311 149.412 215.545 149.174 214.841C145.121 201.38 140.388 188.134 134.995 175.151C133.841 172.365 134.51 170.788 135.541 168.729C137.601 164.608 141.479 156.367 141.479 156.367" stroke="#120071" stroke-width="1.25" stroke-linecap="round" stroke-linejoin="round"/>
<path d="M136.206 139.155C142.993 161.575 144.788 166.68 149.356 174.664C153.875 182.556 159.169 185.68 167.11 183.752C175.65 181.68 199.17 171.464 201.104 170.603C203.656 169.468 203.604 168.116 203.163 165.029C202.489 160.094 201.122 155.279 199.104 150.725C197.661 147.933 197.709 146.666 193.953 147.696C190.863 148.544 168.685 155.028 166.504 155.937C166.08 140.667 163.413 125.216 155.961 117.642" stroke="#120071" stroke-width="1.25" stroke-linecap="round" stroke-linejoin="round"/>
<path d="M134.693 227.078C133.965 233.864 124.451 244.468 130.996 242.833C136.086 241.56 146.777 233.838 151.901 229.865C153.606 228.543 154.691 226.955 152.931 224.35C151.464 222.275 149.822 220.329 148.023 218.533" stroke="#120071" stroke-width="1.25" stroke-linecap="round" stroke-linejoin="round"/>
<path d="M203.043 164.119C210.257 164.726 219.717 177.026 219.161 170.058C218.746 164.846 214.155 153.927 211.103 148.305C210.08 146.422 208.615 144.947 205.345 146.183C203.021 147.149 200.79 148.326 198.68 149.698" stroke="#120071" stroke-width="1.25" stroke-linecap="round" stroke-linejoin="round"/>
<path d="M52.1011 123.28C53.2416 122.696 54.4867 122.344 55.7641 122.244C57.0416 122.145 58.3261 122.299 59.5434 122.699C60.7607 123.099 61.8865 123.737 62.8558 124.575C63.8251 125.413 64.6185 126.435 65.1903 127.582C65.5062 128.241 66.4627 130.126 66.4627 130.126" stroke="#120071" stroke-width="1.25" stroke-linecap="round" stroke-linejoin="round"/>
<path d="M95.3669 165.028L100.093 174.238C101.278 176.553 101.497 179.244 100.702 181.72C99.9066 184.196 98.1621 186.256 95.8507 187.448L53.9823 208.96C49.9082 211.056 45.1684 211.448 40.8051 210.051C36.4418 208.653 32.8122 205.58 30.7142 201.506L7.92874 156.964C6.74396 154.649 6.52507 151.959 7.32005 149.483C8.11503 147.007 9.85904 144.948 12.1699 143.755L19.4409 139.998" stroke="#120071" stroke-width="1.25" stroke-linecap="round" stroke-linejoin="round"/>
<path d="M24.5918 151.576C35.9833 145.699 66.4626 130.126 66.4626 130.126C68.7773 128.941 71.4675 128.722 73.9435 129.517C76.4194 130.312 78.4792 132.056 79.6713 134.368L85.4883 145.699" stroke="#120071" stroke-width="1.25" stroke-linecap="round" stroke-linejoin="round"/>
<path d="M81.7937 138.367C82.3823 138.064 83.025 137.88 83.6848 137.825C84.3447 137.771 85.0089 137.847 85.6394 138.049C86.27 138.252 86.8543 138.577 87.3589 139.006C87.8635 139.435 88.2783 139.959 88.5796 140.549L97.6689 158.182C97.9727 158.77 98.1572 159.413 98.2119 160.073C98.2666 160.733 98.1904 161.397 97.9877 162.028C97.785 162.658 97.4598 163.242 97.0307 163.747C96.6017 164.251 96.0772 164.666 95.4874 164.968L95.4265 165.028L77.7378 174.118C77.1492 174.421 76.5066 174.605 75.8467 174.66C75.1868 174.714 74.5226 174.638 73.8922 174.436C73.2616 174.234 72.6772 173.909 72.1727 173.48C71.6681 173.051 71.2532 172.526 70.9519 171.936L65.62 161.636C65.3159 161.047 65.1309 160.405 65.0756 159.745C65.0204 159.085 65.096 158.421 65.2981 157.791C65.5002 157.16 65.8249 156.576 66.2534 156.071C66.6819 155.566 67.2059 155.151 67.7953 154.85L85.6108 145.701" stroke="#120071" stroke-width="1.25" stroke-linecap="round" stroke-linejoin="round"/>
<path d="M88.5792 140.547C89.3677 142.121 88.0344 144.425 85.6104 145.697" stroke="#120071" stroke-width="1.25" stroke-linecap="round" stroke-linejoin="round"/>
<path d="M78.3995 167.877C80.0549 167.877 81.6425 167.219 82.8131 166.048C83.9836 164.878 84.6412 163.29 84.6412 161.635C84.6412 159.979 83.9836 158.392 82.8131 157.221C81.6425 156.051 80.0549 155.393 78.3995 155.393C76.7441 155.393 75.1564 156.051 73.9859 157.221C72.8153 158.392 72.1577 159.979 72.1577 161.635C72.1577 163.29 72.8153 164.878 73.9859 166.048C75.1564 167.219 76.7441 167.877 78.3995 167.877Z" stroke="#120071" stroke-width="1.25" stroke-linecap="round" stroke-linejoin="round"/>
<path d="M40.4059 118.492C36.4687 118.237 32.5453 119.168 29.1427 121.165C25.74 123.162 23.0144 126.134 21.3181 129.696C19.6218 133.258 19.0327 137.247 19.6268 141.148C20.221 145.048 21.9712 148.681 24.6513 151.576L58.5236 134.247C57.6349 130.004 55.3836 126.169 52.1127 123.325C48.8418 120.48 44.7307 118.783 40.4059 118.492Z" stroke="#120071" stroke-width="1.25" stroke-linecap="round" stroke-linejoin="round"/>
<path d="M24.7709 144.124C23.8448 141.945 23.4501 139.577 23.6192 137.216C23.808 134.383 24.7663 131.656 26.3908 129.328C28.0154 127 30.2445 125.159 32.8379 124.005" stroke="#120071" stroke-width="1.25" stroke-linecap="round" stroke-linejoin="round"/>
<path d="M54.5232 136.247C54.3383 134.668 53.8875 133.131 53.1899 131.702" stroke="#120071" stroke-width="1.25" stroke-linecap="round" stroke-linejoin="round"/>
<path d="M41.0137 122.794C43.5198 123.093 45.914 124.008 47.9787 125.46" stroke="#120071" stroke-width="1.25" stroke-linecap="round" stroke-linejoin="round"/>
<path d="M30.5301 105.04C43.0124 105.04 53.1316 94.9205 53.1316 82.4382C53.1316 69.9559 43.0124 59.8368 30.5301 59.8368C18.0479 59.8368 7.92871 69.9559 7.92871 82.4382C7.92871 94.9205 18.0479 105.04 30.5301 105.04Z" stroke="#120071" stroke-width="1.25" stroke-linecap="round" stroke-linejoin="round"/>
<path d="M12.9644 85.3467C13.5035 88.5497 14.9052 91.5453 17.019 94.0114C19.1328 96.4776 21.8787 98.3211 24.9616 99.3438C27.5361 100.202 30.2724 100.452 32.9601 100.071" stroke="#120071" stroke-width="1.25" stroke-linecap="round" stroke-linejoin="round"/>
<path d="M13.9883 75.8941C15.0513 73.2001 16.7597 70.8084 18.9633 68.9291" stroke="#120071" stroke-width="1.25" stroke-linecap="round" stroke-linejoin="round"/>
<path d="M41.7402 96.2538C43.9926 94.4518 45.763 92.1194 46.8931 89.4655" stroke="#120071" stroke-width="1.25" stroke-linecap="round" stroke-linejoin="round"/>
<path d="M27.3794 64.9269C29.7545 64.4958 32.1926 64.5538 34.5446 65.0971C36.8966 65.6405 39.113 66.658 41.0584 68.0872C43.0037 69.5165 44.637 71.3275 45.8585 73.4096C47.08 75.4917 47.864 77.801 48.1625 80.1964" stroke="#120071" stroke-width="1.25" stroke-linecap="round" stroke-linejoin="round"/>
<path d="M225.282 98.4357C228.087 99.7639 230.506 101.787 232.309 104.312C234.113 106.838 235.241 109.783 235.587 112.867C235.933 115.951 235.485 119.072 234.285 121.935C233.086 124.797 231.175 127.306 228.734 129.222C226.293 131.138 223.402 132.398 220.336 132.883C217.271 133.368 214.133 133.062 211.219 131.993C208.305 130.923 205.714 129.127 203.689 126.775C201.665 124.423 200.275 121.592 199.651 118.552C199.275 116.78 199.173 114.962 199.347 113.159" stroke="#120071" stroke-width="1.25" stroke-linecap="round" stroke-linejoin="round"/>
<path d="M224.376 102.313C226.296 103.365 227.954 104.835 229.227 106.616C230.742 108.747 231.64 111.255 231.821 113.863C232.003 116.471 231.462 119.079 230.257 121.4" stroke="#120071" stroke-width="1.25" stroke-linecap="round" stroke-linejoin="round"/>
<path d="M203.224 114.129C203.031 117.33 203.952 120.498 205.83 123.097C207.208 125.04 209.038 126.62 211.162 127.699" stroke="#120071" stroke-width="1.25" stroke-linecap="round" stroke-linejoin="round"/>
<path d="M218.555 129.156C220.873 128.982 223.117 128.257 225.099 127.042" stroke="#120071" stroke-width="1.25" stroke-linecap="round" stroke-linejoin="round"/>
<path d="M87.4882 43.3549C97.5278 43.3549 105.667 35.2158 105.667 25.1762C105.667 15.1367 97.5278 6.99756 87.4882 6.99756C77.4487 6.99756 69.3096 15.1367 69.3096 25.1762C69.3096 35.2158 77.4487 43.3549 87.4882 43.3549Z" stroke="#120071" stroke-width="1.25" stroke-linecap="round" stroke-linejoin="round"/>
<path d="M74.2788 19.6021C73.2571 22.0065 72.9146 24.6451 73.2888 27.2307C73.6629 29.8163 74.7393 32.2497 76.4006 34.2659C77.802 35.9467 79.5618 37.2926 81.551 38.2048" stroke="#120071" stroke-width="1.25" stroke-linecap="round" stroke-linejoin="round"/>
<path d="M89.1255 39.3484C91.4371 39.098 93.6472 38.2643 95.5482 36.9255" stroke="#120071" stroke-width="1.25" stroke-linecap="round" stroke-linejoin="round"/>
<path d="M100.76 19.7784C101.507 21.604 101.865 23.5649 101.813 25.5366C101.761 27.5083 101.299 29.4475 100.457 31.2309" stroke="#120071" stroke-width="1.25" stroke-linecap="round" stroke-linejoin="round"/>
<path d="M79.0659 13.6033C80.9549 12.2496 83.1336 11.3552 85.4289 10.9915" stroke="#120071" stroke-width="1.25" stroke-linecap="round" stroke-linejoin="round"/>
<path d="M98.5168 16.0805C96.9933 14.2632 95.0625 12.831 92.8813 11.9003" stroke="#120071" stroke-width="1.25" stroke-linecap="round" stroke-linejoin="round"/>
<path d="M38.1039 142.608L36.7706 140.003L41.9819 137.397C42.4133 137.181 42.8992 137.097 43.3782 137.157C43.8571 137.217 44.3074 137.418 44.6721 137.734C44.9134 137.944 45.1124 138.201 45.2542 138.488L38.1039 142.608ZM36.4074 143.518L32.2868 135.397L30.4088 136.367L29.5605 134.671L32.65 133.095L31.6811 131.218L33.3776 130.37L34.3465 132.248L35.6798 131.581L34.7109 129.703L36.4074 128.855L37.3763 130.733L37.5591 130.609C38.2491 130.258 39.0259 130.114 39.7957 130.195C40.5656 130.276 41.2955 130.578 41.8976 131.065C42.4997 131.551 42.9481 132.201 43.1888 132.937C43.4296 133.673 43.4523 134.462 43.2542 135.211C44.0254 135.238 44.775 135.472 45.4251 135.887C46.0752 136.303 46.602 136.885 46.9507 137.574L36.4074 143.518ZM41.3152 133.212C41.0576 132.714 40.613 132.339 40.0791 132.169C39.5452 131.998 38.9654 132.046 38.467 132.303L34.0443 134.542L35.9833 138.36L40.406 136.121C40.8988 135.844 41.2671 135.389 41.4361 134.849C41.605 134.31 41.5618 133.726 41.3152 133.217V133.212Z" stroke="#120071" stroke-width="1.25" stroke-linecap="round" stroke-linejoin="round"/>
<path d="M154.566 238.348C160.455 219.68 172.315 203.465 188.323 192.198C204.33 180.931 223.596 175.238 243.156 175.994" stroke="#120071" stroke-width="1.25" stroke-linecap="round" stroke-linejoin="round"/>
<path d="M166.383 45.9606C168.989 40.6274 172.45 36.4658 177.229 34.4472C183.907 31.6264 192.62 33.1749 206.134 40.8103C219.647 48.4469 225.485 55.1669 226.49 62.3209C227.173 67.1716 225.581 72.0222 222.673 76.7484" stroke="#120071" stroke-width="1.25" stroke-linecap="round" stroke-linejoin="round"/>
<path d="M195.589 107.221C197.219 107.705 198.881 108.07 200.564 108.312C210.875 109.573 216.733 104.852 219.652 99.8285C225.506 89.7541 220.882 82.8587 219.713 75.5915C218.64 68.9225 220.861 64.9885 216.926 59.776C214.136 56.0808 209.364 52.3607 201.958 48.1419C194.579 43.9381 188.931 41.7714 184.326 41.2938C177.782 40.6172 175.595 44.4928 169.298 47.0512C163.658 49.3422 156.936 49.4143 151.604 55.2923" stroke="#120071" stroke-width="1.25" stroke-linecap="round" stroke-linejoin="round"/>
<path d="M211.223 28.9948C210.76 28.1357 210.068 27.4221 209.223 26.9339C208.616 26.5726 207.942 26.3361 207.242 26.2381C206.542 26.1401 205.83 26.1827 205.147 26.3634C204.463 26.544 203.823 26.8591 203.263 27.2903C202.703 27.7214 202.234 28.2599 201.885 28.8742C201.433 29.6622 201.187 30.5516 201.17 31.4599C201.153 32.3683 201.366 33.2662 201.788 34.0706C202.212 34.8743 202.832 35.558 203.59 36.0583C204.349 36.5585 205.222 36.8592 206.127 36.9324" stroke="#120071" stroke-width="1.25" stroke-linecap="round" stroke-linejoin="round"/>
<path d="M31.7411 87.2272L38.5282 80.1963L26.7126 70.1381L22.2886 84.9835L31.7411 87.2259V87.2272Z" stroke="#120071" stroke-width="1.25" stroke-linecap="round" stroke-linejoin="round"/>
<path d="M22.2886 84.9831L29.378 79.0454L38.5282 80.1959" stroke="#120071" stroke-width="1.25" stroke-linecap="round" stroke-linejoin="round"/>
<path d="M38.1656 82.8627L33.9841 94.8002L24.2891 87.2854" stroke="#120071" stroke-width="1.25" stroke-linecap="round" stroke-linejoin="round"/>
<path d="M33.984 94.8016L32.106 88.4983" stroke="#120071" stroke-width="1.25" stroke-linecap="round" stroke-linejoin="round"/>
<path d="M31.7409 87.2272L26.7124 70.1381" stroke="#120071" stroke-width="1.25" stroke-linecap="round" stroke-linejoin="round"/>
<path d="M89.6696 15.6023L82.3377 20.2042L84.0951 22.9914L88.6398 20.1432L91.488 24.6879L94.279 22.9342L89.6696 15.6023ZM80.5803 21.2987L77.854 22.9951L79.5505 25.7227L82.2768 24.025L80.5803 21.2987ZM95.366 24.6294L92.6385 26.3259L94.3349 29.0522L97.0625 27.3557L95.366 24.6294ZM90.881 27.3557L86.3376 30.2039L83.4894 25.6593L80.7022 27.4167L85.3041 34.7548L92.636 30.1529L90.881 27.3557ZM87.9732 22.9342L85.2468 24.6294L86.9408 27.3582L89.6671 25.6617L87.9732 22.9342Z" stroke="#120071" stroke-width="1.25" stroke-linecap="round" stroke-linejoin="round"/>
<path d="M222.433 111.591L218.858 108.924L216.252 112.378L219.706 114.984L218.373 116.741L214.923 114.129L211.893 118.189L215.468 120.855C215.903 121.188 216.4 121.429 216.93 121.567C217.461 121.704 218.013 121.734 218.555 121.655C219.096 121.576 219.617 121.389 220.086 121.106C220.555 120.824 220.962 120.45 221.285 120.007L223.224 117.402C223.554 116.968 223.796 116.473 223.936 115.946C224.075 115.419 224.109 114.869 224.035 114.329C223.962 113.789 223.782 113.268 223.507 112.797C223.232 112.326 222.867 111.914 222.433 111.585V111.591Z" stroke="#120071" stroke-width="1.25" stroke-linecap="round" stroke-linejoin="round"/>
<path d="M219.767 106.858L223.706 109.827C225.042 110.85 225.924 112.355 226.161 114.021C226.399 115.687 225.974 117.379 224.978 118.735L223.039 121.347C222.025 122.695 220.518 123.586 218.848 123.825C217.178 124.063 215.482 123.63 214.131 122.619L208.799 118.619L213.162 112.863L211.768 111.772" stroke="#120071" stroke-width="1.25" stroke-linecap="round" stroke-linejoin="round"/>
<path d="M119.421 124.794C138.933 125.4 153.051 125.46 158.687 121.098" stroke="#120071" stroke-width="1.25" stroke-linecap="round" stroke-linejoin="round"/>
<path d="M149.901 128.551C150.447 129.702 150.931 130.789 151.355 131.884" stroke="#120071" stroke-width="1.25" stroke-linecap="round" stroke-linejoin="round"/>
<path d="M153.779 138.792C159.476 157.515 154.93 167.993 165.346 165.271C175.343 162.659 180.799 160.969 186.676 159.334" stroke="#120071" stroke-width="1.25" stroke-linecap="round" stroke-linejoin="round" stroke-dasharray="3.67 3.67"/>
<path d="M190.257 158.424C191.409 158.121 192.56 157.878 193.772 157.576" stroke="#120071" stroke-width="1.25" stroke-linecap="round" stroke-linejoin="round"/>
<path d="M131.056 151.576C130.595 152.697 130.11 153.809 129.603 154.91" stroke="#120071" stroke-width="1.25" stroke-linecap="round" stroke-linejoin="round"/>
<path d="M126.814 161.636C124.088 168.483 123.12 172.239 123.724 175.451C124.76 180.965 126.814 187.995 137.419 212.898" stroke="#120071" stroke-width="1.25" stroke-linecap="round" stroke-linejoin="round" stroke-dasharray="3.64 3.64"/>
<path d="M138.873 216.231C139.358 217.322 139.843 218.413 140.327 219.563" stroke="#120071" stroke-width="1.25" stroke-linecap="round" stroke-linejoin="round"/>
<path d="M135.237 19.1168C135.813 17.5691 136.655 16.1338 137.725 14.8756" stroke="#120071" stroke-width="1.25" stroke-linecap="round" stroke-linejoin="round"/>
<path d="M135.965 29.5391C135.174 28.0748 134.679 26.4687 134.51 24.8129" stroke="#120071" stroke-width="1.25" stroke-linecap="round" stroke-linejoin="round"/>
<path d="M144.388 36.0231C142.724 35.6445 141.157 34.9245 139.786 33.9087" stroke="#120071" stroke-width="1.25" stroke-linecap="round" stroke-linejoin="round"/>
<path d="M154.809 34.0229C153.379 35.0171 151.776 35.7342 150.083 36.1373" stroke="#120071" stroke-width="1.25" stroke-linecap="round" stroke-linejoin="round"/>
<path d="M160.198 24.8129C160.017 26.5319 159.502 28.199 158.683 29.7207" stroke="#120071" stroke-width="1.25" stroke-linecap="round" stroke-linejoin="round"/>
<path d="M156.808 14.694C157.968 15.9642 158.873 17.4448 159.475 19.0558" stroke="#120071" stroke-width="1.25" stroke-linecap="round" stroke-linejoin="round"/>
<path d="M142.569 11.4828C144.089 10.8678 145.716 10.5593 147.356 10.5749C149.02 10.5861 150.666 10.9144 152.207 11.5438" stroke="#120071" stroke-width="1.25" stroke-linecap="round" stroke-linejoin="round"/>
<path d="M109.182 215.261C109.253 215.805 109.294 216.351 109.306 216.898C109.3 218.929 108.688 220.912 107.549 222.593" stroke="#120071" stroke-width="1.25" stroke-linecap="round" stroke-linejoin="round"/>
<path d="M93.4272 208.475C95.1085 207.336 97.0914 206.724 99.1224 206.718C101.63 206.712 104.05 207.641 105.91 209.324" stroke="#120071" stroke-width="1.25" stroke-linecap="round" stroke-linejoin="round"/>
<path d="M89.9128 221.2C89.2855 219.852 88.9547 218.385 88.9426 216.898C88.9361 215.979 89.058 215.063 89.3046 214.177" stroke="#120071" stroke-width="1.25" stroke-linecap="round" stroke-linejoin="round"/>
<path d="M102.152 226.593C101.173 226.907 100.151 227.071 99.1224 227.078C97.6356 227.066 96.1686 226.735 94.8203 226.108" stroke="#120071" stroke-width="1.25" stroke-linecap="round" stroke-linejoin="round"/>
</svg>
